<svg width="18" height="18" viewBox="0 0 18 18" fill="none" xmlns="http://www.w3.org/2000/svg">
<path d="M15.9636 6.2066L11.5005 5.55797L9.5054 1.51325C9.4509 1.4025 9.36126 1.31285 9.25051 1.25836C8.97278 1.12125 8.63528 1.23551 8.49641 1.51325L6.50129 5.55797L2.03821 6.2066C1.91516 6.22418 1.80266 6.28219 1.71653 6.37008C1.6124 6.47711 1.55502 6.6211 1.557 6.77041C1.55897 6.91972 1.62015 7.06214 1.72707 7.16637L4.95618 10.3146L4.19329 14.7601C4.1754 14.8635 4.18684 14.9699 4.22632 15.0671C4.2658 15.1644 4.33173 15.2486 4.41665 15.3103C4.50156 15.3719 4.60206 15.4086 4.70674 15.4161C4.81142 15.4235 4.9161 15.4015 5.00891 15.3525L9.0009 13.2537L12.9929 15.3525C13.1019 15.4105 13.2284 15.4298 13.3497 15.4088C13.6556 15.356 13.8613 15.066 13.8085 14.7601L13.0456 10.3146L16.2747 7.16637C16.3626 7.08024 16.4206 6.96774 16.4382 6.84469C16.4857 6.53707 16.2712 6.25231 15.9636 6.2066Z" fill="#FFC000"/>
</svg>
